# xmcd CD database file
#
# Track frame offsets:
#	150
#	21355
#	57581
#	91373
#	135767
#	142563
#
# Disc length: 2485 seconds
#
# Revision: 0
# Processed by: cddbd v1.5.1PL2 Copyright (c) Steve Scherf et al.
# Submitted via: CDex 1.51
#
DISCID=4409b306
DTITLE=Adams, George - Life Line
DYEAR=1981
DGENRE=Jazz
TTITLE0=The Great Escape, Or Run John Henry Run
TTITLE1=Seripusly Speaking
TTITLE2=Soft Seas
TTITLE3=Nature´s Children
TTITLE4=Protection
TTITLE5=Newcomer - Seven Years Later
EXTD=YEAR: 1981
EXTT0=
EXTT1=
EXTT2=
EXTT3=
EXTT4=
EXTT5=
PLAYORDER=
